<svg version="1.1" id="Layer_1" xmlns="http://www.w3.org/2000/svg" xmlns:xlink="http://www.w3.org/1999/xlink" x="0px" y="0px"
	 width="100%" viewBox="0 0 1024 1024" enable-background="new 0 0 1024 1024" xml:space="preserve">
<path fill="#000000" opacity="1.000000" stroke="none" 
	d="
M584.935669,609.707886 
	C587.372620,610.534363 589.494385,611.089600 591.422302,612.038452 
	C599.068298,615.801636 600.860779,621.243713 596.536987,629.649048 
	C625.942505,633.690247 654.707092,639.248840 682.207642,649.880371 
	C568.381226,628.655518 454.676941,628.476257 340.875671,650.011108 
	C369.103088,638.965881 398.613953,633.296570 428.649994,629.352112 
	C423.824860,617.673523 427.162140,611.640076 439.128448,608.728760 
	C445.132172,607.268127 450.946594,608.182251 456.434937,609.724487 
	C458.308594,607.440735 457.654449,605.362183 457.696075,603.439026 
	C458.009369,588.954712 457.544342,574.474365 458.252441,559.975281 
	C459.063965,543.359497 464.117645,527.964905 470.024078,512.725342 
	C479.541290,488.169525 490.289886,464.151642 502.260895,440.696289 
	C504.196381,436.903992 504.073792,432.893036 504.391632,429.038605 
	C506.772491,400.164673 508.858398,371.262634 506.624695,342.265320 
	C506.267059,337.622528 505.751984,332.990906 505.240631,328.361755 
	C505.153687,327.574371 504.715912,326.825714 504.123962,325.179688 
	C478.571167,340.849701 454.570740,357.999939 431.715057,376.301239 
	C431.532867,378.828888 433.206116,379.626953 434.437897,380.635010 
	C446.686066,390.658508 458.966278,400.642883 471.236053,410.640015 
	C472.398834,411.587463 473.547485,412.481659 475.096924,412.820343 
	C483.243256,414.601105 486.424133,417.702301 487.109802,425.569092 
	C487.786224,433.330109 485.719421,440.492188 480.358429,446.343903 
	C474.092163,453.183807 464.767487,451.147491 461.796509,442.407135 
	C459.469879,435.562347 461.058716,429.056274 464.566986,423.245789 
	C466.910095,419.364960 465.799408,417.656097 462.721527,415.191376 
	C449.717682,404.778137 436.895081,394.137482 424.061340,383.513367 
	C417.905487,378.417328 417.938599,376.216675 424.337433,371.057892 
	C448.229248,351.796234 473.025574,333.774506 499.338257,317.963531 
	C504.210907,315.035614 502.923889,311.746887 502.447144,307.882324 
	C501.963989,303.965637 499.406128,303.697021 496.143768,303.155121 
	C460.624451,297.254669 441.422058,259.117584 457.612518,227.036713 
	C458.877991,224.529236 460.242401,222.071701 461.663239,219.398285 
	C460.794891,218.713150 460.196960,218.178711 459.538574,217.733749 
	C457.596619,216.421265 455.097900,215.114441 456.306671,212.336517 
	C457.581696,209.406326 460.021149,211.444046 461.986572,211.775208 
	C464.684692,212.229874 467.289093,212.170197 470.136230,210.197830 
	C465.447144,208.629745 462.295471,205.868469 461.833160,200.975296 
	C461.601135,198.519882 461.987366,195.954849 464.640137,195.194397 
	C467.642059,194.333832 468.060852,196.800339 468.495392,199.056198 
	C468.997925,201.664658 470.791016,202.469543 473.323517,202.183899 
	C476.362823,201.841095 479.108185,200.685593 481.838898,199.427475 
	C513.458496,184.859390 549.410034,202.149658 557.460571,235.971970 
	C558.411865,239.968445 560.457764,241.562637 564.114319,242.858780 
	C581.065430,248.867584 597.897339,255.213135 614.765991,261.453949 
	C617.010925,262.284454 619.103333,263.307495 619.293884,266.157166 
	C619.484009,268.999695 617.559814,270.256073 615.451965,271.433746 
	C583.745850,289.148071 551.837341,306.480316 518.861267,321.745819 
	C515.259888,323.412964 513.743164,325.419434 514.230713,329.360016 
	C516.609009,348.583252 516.665527,367.899231 516.113037,387.216614 
	C515.665833,402.852661 514.153503,418.423584 512.530884,433.973846 
	C512.178101,437.354431 513.151062,440.107483 514.628174,442.989288 
	C529.831909,472.651764 543.721985,502.907349 555.415100,534.141174 
	C561.810120,551.222961 562.682983,569.243591 564.297913,587.133362 
	C565.012756,595.051575 565.714844,602.970886 566.473328,611.456055 
	C572.737366,609.906738 578.499695,607.822266 584.935669,609.707886 
M468.045380,551.464050 
	C466.664368,560.230835 467.282776,569.079773 466.961212,577.890076 
	C466.382111,593.756470 467.998840,609.681763 465.782288,626.108337 
	C496.628784,623.951050 527.584229,624.401855 558.404358,625.945496 
	C557.116089,610.595764 555.892029,596.197693 554.703247,581.796692 
	C553.485107,567.040588 552.234741,552.329529 547.209167,538.188904 
	C538.442261,513.521118 527.388855,489.850464 516.342407,466.170074 
	C513.904968,460.944885 511.473999,455.703674 508.282837,450.904907 
	C506.321198,451.604370 505.991577,453.203308 505.376434,454.482941 
	C494.916687,476.242157 485.043182,498.258850 476.665314,520.916077 
	C473.088959,530.587952 469.614014,540.303467 468.045380,551.464050 
M539.422668,278.899323 
	C554.029114,258.855103 554.155762,238.128189 540.149963,220.013412 
	C523.886353,198.978317 489.822266,198.073288 476.226990,214.473328 
	C474.725739,216.284317 472.575562,217.885696 470.360016,218.070816 
	C463.879761,218.612289 462.172577,223.395416 460.351562,228.268402 
	C459.062866,231.716812 458.439270,235.310318 457.833282,238.927231 
	C454.344818,259.748718 465.109406,280.551392 484.432251,290.198547 
	C503.242584,299.589844 523.752502,295.541809 539.422668,278.899323 
M545.681213,285.136627 
	C537.708374,294.459991 527.648682,300.437958 515.705750,302.860809 
	C511.684845,303.676514 510.729156,305.473267 511.402222,308.947571 
	C511.739899,310.690552 511.672150,312.609375 513.479675,314.394684 
	C544.020630,300.491943 573.570251,284.485687 603.325500,267.890747 
	C598.490906,264.484985 564.715515,251.874512 559.612610,251.354797 
	C558.274597,257.138092 557.748779,263.132019 555.481873,268.740814 
	C553.148499,274.514008 550.146484,279.835388 545.681213,285.136627 
M470.344543,431.888916 
	C469.964478,434.311310 468.696777,436.678802 469.888275,439.198547 
	C470.561523,440.622284 471.226440,441.938507 473.240479,440.973450 
	C478.234100,438.580750 480.042603,426.808472 476.013702,422.691711 
	C472.838409,425.055603 472.838409,425.055603 470.344543,431.888916 
M587.508972,622.761963 
	C590.491943,621.603821 588.449890,620.625122 587.323242,619.838806 
	C582.902527,616.753357 573.710693,617.572815 569.260681,621.538147 
	C575.061157,623.965759 580.864136,624.246704 587.508972,622.761963 
M440.508759,617.442383 
	C438.975708,618.223267 436.899719,618.198914 436.194611,620.269897 
	C440.705505,622.744690 448.602692,622.368835 454.768799,619.251282 
	C450.424072,616.330078 445.867096,616.804077 440.508759,617.442383 
z"/>
<path fill="#000000" opacity="1.000000" stroke="none" 
	d="
M328.574402,429.334167 
	C312.943329,397.261475 305.075409,363.784546 306.952271,328.463715 
	C311.798279,237.265137 371.941193,160.265091 460.176147,137.924927 
	C541.722473,117.278236 610.997192,140.587891 666.782898,202.807205 
	C695.126160,234.419220 710.646545,272.465973 715.385864,314.682007 
	C721.835999,372.137146 705.512451,422.951721 669.874573,467.953735 
	C665.183105,473.877991 660.515503,479.873322 653.873718,484.224976 
	C694.832336,438.506500 714.294373,385.453613 707.568420,324.212616 
	C700.828552,262.844696 671.407166,214.187851 620.026489,180.059738 
	C536.669678,124.692337 432.908752,142.023392 369.358307,208.849579 
	C332.504883,247.602631 314.528107,294.433075 314.894043,348.109283 
	C315.259796,401.764923 336.119293,446.934021 372.763428,486.395386 
	C363.161713,482.235779 341.924805,454.473816 328.574402,429.334167 
z"/>
<path fill="#000000" opacity="1.000000" stroke="none" 
	d="
M523.293823,696.099121 
	C523.298401,714.736694 523.312317,732.889709 523.301575,751.042664 
	C523.292480,766.548828 516.234253,777.843872 503.518799,782.762085 
	C489.150391,788.319519 469.909058,784.634521 460.607971,774.673767 
	C458.786041,772.722717 458.433350,771.076721 460.355743,769.115295 
	C461.287506,768.164673 462.272278,767.236694 463.042206,766.161743 
	C465.994751,762.039368 468.422974,761.807251 472.513214,765.564026 
	C484.294281,776.384216 504.077240,771.545654 508.105713,757.307312 
	C508.932770,754.384216 508.827148,751.495178 508.531830,748.399597 
	C486.936218,759.249329 471.465057,757.206848 460.393768,742.274780 
	C450.471680,728.892639 451.682465,708.982117 463.001129,696.584412 
	C471.634613,687.127869 491.170868,680.395996 507.823761,693.599792 
	C509.829315,688.020752 513.076660,686.243347 519.725830,687.247742 
	C525.341675,688.096008 522.569946,692.622986 523.293823,696.099121 
M495.766479,740.511292 
	C506.051819,735.899780 510.589417,727.294373 508.574219,716.221619 
	C506.999023,707.566528 499.102936,700.686707 489.819397,700.421509 
	C481.691437,700.189331 475.235168,703.585022 471.401031,710.940918 
	C467.158173,719.080994 467.743439,727.128845 473.480347,734.292847 
	C479.033142,741.227051 486.456970,743.152161 495.766479,740.511292 
z"/>
<path fill="#000000" opacity="1.000000" stroke="none" 
	d="
M265.693970,755.387207 
	C263.332581,753.775574 263.822113,751.634155 263.813293,749.700745 
	C263.762482,738.537354 263.837860,727.373047 263.751526,716.210022 
	C263.671021,705.803284 258.407257,700.198669 248.841415,700.114380 
	C238.540359,700.023499 231.438126,706.486511 231.277740,716.451599 
	C231.098114,727.612549 231.034424,738.781311 231.257950,749.939941 
	C231.351120,754.591858 229.552292,756.073486 225.083710,755.999146 
	C216.967712,755.863953 216.130936,755.629883 216.118362,750.190491 
	C216.049042,720.198792 216.107132,690.206848 216.029495,660.215210 
	C216.018478,655.955444 217.655182,654.010071 222.003220,654.585205 
	C223.149811,654.736816 224.346786,654.729858 225.496780,654.593933 
	C229.920471,654.071167 231.360855,656.084839 231.240814,660.369507 
	C231.007599,668.694214 231.129944,677.029846 231.175781,685.360535 
	C231.186478,687.302856 230.677734,689.363892 231.962906,691.135437 
	C233.693008,692.074036 234.850143,690.821045 236.079865,690.104004 
	C244.587631,685.143433 253.537796,684.783691 262.533112,688.153198 
	C272.259613,691.796570 277.070679,699.541382 278.208374,709.525391 
	C279.778229,723.302124 278.699677,737.154907 278.904999,750.972778 
	C278.953705,754.251160 277.421295,755.970947 274.076477,755.871765 
	C271.418030,755.792969 268.761200,755.659851 265.693970,755.387207 
z"/>
<path fill="#000000" opacity="1.000000" stroke="none" 
	d="
M605.763550,709.661560 
	C605.977600,723.920166 606.082153,737.742249 606.231384,751.563843 
	C606.262817,754.473450 604.887451,755.876343 602.031494,755.933472 
	C601.365234,755.946777 600.699036,755.961060 600.032776,755.972717 
	C591.162476,756.128296 590.996765,755.959534 591.009460,747.282227 
	C591.024597,736.952332 591.061340,726.622314 591.015259,716.292664 
	C590.968018,705.695740 585.957642,700.172852 576.369385,700.009705 
	C566.054565,699.834167 558.540649,706.622375 558.381409,716.639343 
	C558.204041,727.799438 558.110229,738.971252 558.437622,750.124512 
	C558.596252,755.529724 555.820557,756.071289 551.602478,755.976013 
	C544.234741,755.809509 543.778137,755.664917 543.772034,750.218506 
	C543.738159,720.228516 543.822327,690.238159 543.674683,660.248901 
	C543.652771,655.794556 545.298279,654.137451 549.546570,654.631836 
	C550.368103,654.727417 551.223633,654.731506 552.041992,654.620056 
	C556.731140,653.981567 558.597595,655.765625 558.410950,660.692688 
	C558.076965,669.510681 558.270935,678.350037 558.318054,687.180054 
	C558.327454,688.950562 557.863525,690.816223 559.142212,692.965210 
	C569.505981,685.403992 580.731995,683.633606 592.370483,689.288208 
	C600.490234,693.233276 604.419983,700.452515 605.763550,709.661560 
z"/>
<path fill="#000000" opacity="1.000000" stroke="none" 
	d="
M294.935730,708.242188 
	C301.256805,694.107788 314.319427,685.585815 328.099121,686.321411 
	C345.076569,687.227722 357.040894,695.695068 361.565094,710.005859 
	C366.312439,725.022522 361.931488,740.058105 350.033569,749.583130 
	C338.765625,758.603760 321.081909,759.475220 308.749054,751.617554 
	C296.212006,743.629883 289.946930,728.336487 293.324829,713.894409 
	C293.740845,712.115723 294.308014,710.372314 294.935730,708.242188 
M321.327545,701.647766 
	C312.030487,705.323914 307.648743,712.472168 307.448700,722.159546 
	C307.284332,730.116638 312.935089,738.166870 320.045135,740.987427 
	C328.222961,744.231689 337.907532,742.019653 343.272675,735.682129 
	C349.502136,728.323608 350.427521,717.854431 345.531494,710.127625 
	C340.540527,702.250916 331.567474,698.912659 321.327545,701.647766 
z"/>
<path fill="#000000" opacity="1.000000" stroke="none" 
	d="
M413.269287,755.618286 
	C392.358063,760.973450 377.117401,750.063232 376.210052,728.991577 
	C375.694733,717.024963 376.156403,705.018127 376.063354,693.030334 
	C376.032501,689.052124 377.562134,687.520569 381.707214,687.497803 
	C391.235809,687.445496 391.238037,687.242615 391.240906,696.805481 
	C391.243927,706.796082 391.183990,716.786987 391.254089,726.777100 
	C391.326263,737.065857 396.366211,742.713318 405.536652,742.973511 
	C415.776642,743.264038 422.617706,737.383789 422.941986,727.262573 
	C423.299103,716.117737 423.200470,704.951294 423.011353,693.799194 
	C422.931824,689.107849 424.510986,686.912964 429.374878,687.547485 
	C430.848083,687.739685 432.374054,687.657959 433.865417,687.553223 
	C436.798950,687.347290 438.185211,688.591125 438.181854,691.581970 
	C438.159485,711.563049 438.164001,731.544067 438.201660,751.525085 
	C438.207092,754.410522 436.906006,756.161011 434.050140,755.836243 
	C429.889130,755.363159 424.130524,758.696411 422.714142,750.945740 
	C419.462036,752.569824 416.552948,754.022583 413.269287,755.618286 
z"/>
<path fill="#000000" opacity="1.000000" stroke="none" 
	d="
M751.897949,735.879639 
	C756.672302,742.576355 763.343872,744.704285 771.033325,742.253723 
	C777.950928,740.049133 782.420776,733.686157 782.550171,725.246155 
	C782.713684,714.584778 782.579529,703.919067 782.633484,693.255615 
	C782.662354,687.555481 783.177185,687.150574 789.550720,687.126892 
	C796.440613,687.101257 797.218079,687.643555 797.231201,693.110474 
	C797.276611,712.105286 797.148376,731.101440 797.349060,750.094299 
	C797.399475,754.863464 795.368103,756.270691 791.048645,756.035889 
	C786.994507,755.815674 782.360779,757.060547 781.378479,750.824097 
	C777.515869,752.565247 774.533264,755.026123 770.790771,756.068115 
	C751.861572,761.338257 736.233337,749.519653 735.168640,728.376160 
	C734.566162,716.411438 735.169495,704.389038 735.088867,692.393494 
	C735.062134,688.419189 736.956482,687.205566 740.635498,687.282104 
	C749.895142,687.474609 750.008423,687.492981 750.027527,696.808716 
	C750.047363,706.472717 750.018982,716.136780 750.026855,725.800842 
	C750.029541,729.142151 750.089294,732.481445 751.897949,735.879639 
z"/>
<path fill="#000000" opacity="1.000000" stroke="none" 
	d="
M160.565094,680.611694 
	C160.358826,668.371216 162.010849,669.209106 149.466812,669.197449 
	C145.300430,669.193542 141.133591,669.140625 136.967804,669.186035 
	C134.080948,669.217529 132.577316,667.981079 132.725571,664.996155 
	C132.750305,664.497681 132.723190,663.996399 132.715164,663.496521 
	C132.573502,654.662781 132.573349,654.655090 141.259537,654.647278 
	C159.925079,654.630493 178.593018,654.783020 197.254639,654.506836 
	C202.447891,654.429993 203.357147,656.695435 203.244019,661.110840 
	C203.050674,668.658813 202.916672,669.132324 197.137451,669.205017 
	C191.638611,669.274170 186.128876,669.425171 180.641724,669.164978 
	C176.478531,668.967529 175.223465,670.535706 175.249573,674.648193 
	C175.406219,699.312439 175.360916,723.978210 175.269379,748.643127 
	C175.260849,750.938965 176.616318,754.265076 173.502914,755.269958 
	C169.722122,756.490234 165.530670,756.643921 161.764847,755.042358 
	C159.802200,754.207642 160.636154,751.760376 160.632217,750.013428 
	C160.580429,727.025208 160.582092,704.036865 160.565094,680.611694 
z"/>
<path fill="#000000" opacity="1.000000" stroke="none" 
	d="
M690.604065,668.977234 
	C695.148193,655.145020 709.767517,652.124817 721.291260,655.503235 
	C723.636108,656.190613 724.581116,657.562561 724.018982,659.961792 
	C723.677673,661.418823 723.315125,662.876221 723.082764,664.352478 
	C722.461182,668.301086 721.018677,670.290894 716.401184,668.714844 
	C712.386719,667.344604 708.305786,668.271362 705.690552,672.005127 
	C702.722229,676.243103 702.970825,681.154297 703.792053,685.963135 
	C704.060913,687.537048 705.768005,687.452637 707.133911,687.387695 
	C709.295166,687.284912 711.456970,687.141052 713.619385,687.123047 
	C721.727478,687.055359 724.162781,690.367676 722.008240,698.274719 
	C721.401306,700.501953 719.908020,701.090698 717.919189,701.108032 
	C715.088318,701.132690 712.242615,701.308289 709.429443,701.087036 
	C704.992065,700.737976 703.189148,702.290710 703.302185,707.022705 
	C703.640015,721.159424 703.372681,735.311462 703.769958,749.445435 
	C703.903809,754.204041 702.606201,756.100464 697.712341,756.045715 
	C688.923401,755.947266 688.833496,756.053162 688.836487,747.244080 
	C688.841064,733.754578 688.687256,720.262146 688.937622,706.777222 
	C689.020325,702.324158 687.467285,700.963928 683.164856,701.066895 
	C676.481079,701.226807 673.246155,695.750366 676.082458,689.464722 
	C677.401245,686.541931 680.306763,686.905640 682.637268,687.236145 
	C687.646606,687.946411 689.298767,685.907715 688.862793,681.144592 
	C688.495483,677.131653 689.188171,673.184204 690.604065,668.977234 
z"/>
<path fill="#000000" opacity="1.000000" stroke="none" 
	d="
M912.968445,695.851685 
	C912.347717,697.030762 911.827393,697.882996 911.214417,698.662292 
	C906.092407,705.174011 906.084534,705.175476 898.891541,701.681091 
	C895.150879,699.863770 891.214111,699.587036 887.198242,700.290527 
	C884.225525,700.811218 881.804565,702.143921 881.322998,705.501709 
	C880.829590,708.942505 882.917358,710.801392 885.713501,711.925232 
	C888.483704,713.038818 891.400208,713.782349 894.212524,714.798889 
	C897.961182,716.154053 901.843994,717.282776 905.359985,719.105408 
	C911.720276,722.402466 915.255920,727.614807 915.406616,735.100403 
	C915.565247,742.976868 912.665771,749.065979 905.915588,753.093994 
	C894.660522,759.809998 875.191956,757.274719 865.748291,748.101562 
	C863.971436,746.375610 863.633606,744.867554 865.386414,743.009766 
	C866.068787,742.286377 866.638916,741.455505 867.245117,740.662109 
	C871.552917,735.024353 872.530579,734.922546 877.372559,739.026611 
	C882.362732,743.256348 888.625977,744.647095 895.216614,742.711182 
	C898.083618,741.868896 900.379944,740.413086 900.798035,737.079041 
	C901.217651,733.732239 899.457825,731.645081 896.706055,730.365295 
	C894.153931,729.178345 891.457458,728.290894 888.795898,727.353027 
	C885.818054,726.303894 882.748962,725.493896 879.822693,724.322205 
	C869.954834,720.371216 866.122864,714.654602 866.676880,704.992249 
	C867.162048,696.530884 872.711731,689.793823 881.984253,687.541504 
	C892.101868,685.083862 901.818481,686.363831 910.556763,692.518188 
	C911.641724,693.282288 912.797180,694.006958 912.968445,695.851685 
z"/>
<path fill="#000000" opacity="1.000000" stroke="none" 
	d="
M647.063782,705.346069 
	C647.075928,714.969788 647.034058,724.135620 647.142944,733.299561 
	C647.232178,740.808411 651.073914,743.792908 658.467102,742.302124 
	C664.924377,741.000122 665.015564,741.219177 666.926270,750.034119 
	C668.066650,755.294922 664.057373,755.408569 661.043579,756.088684 
	C643.879211,759.962036 632.913635,751.654175 632.199402,734.062988 
	C631.827942,724.911865 631.946228,715.732605 632.119568,706.571289 
	C632.197571,702.447510 630.661804,700.719849 626.558350,701.110229 
	C624.909607,701.267151 623.227600,701.139771 621.564392,701.062256 
	C619.185547,700.951538 618.114441,699.677429 617.815369,697.279236 
	C616.763062,688.839600 617.688110,687.463989 626.042847,687.680664 
	C630.634155,687.799622 632.550171,686.199036 632.125366,681.631714 
	C631.940918,679.648132 632.207153,677.623352 632.033997,675.637756 
	C631.613464,670.815369 633.385315,668.735596 638.550110,668.865051 
	C646.997864,669.076965 647.071655,668.912109 647.121277,677.515625 
	C647.183289,688.257812 645.790833,687.114868 657.173828,687.541138 
	C665.175110,687.840759 667.296936,690.582764 665.330994,698.442139 
	C664.730347,700.843506 663.041687,701.028503 661.162292,701.064819 
	C657.830505,701.129211 654.496887,701.168213 651.164856,701.136414 
	C648.577148,701.111694 646.983521,702.049622 647.063782,705.346069 
z"/>
<path fill="#000000" opacity="1.000000" stroke="none" 
	d="
M649.355591,789.736816 
	C657.885681,788.065308 658.439514,788.330688 662.059692,795.599304 
	C664.880249,801.262451 667.622925,806.965454 670.525818,812.585876 
	C671.327942,814.139038 671.924622,815.983154 674.322449,817.050659 
	C678.431763,809.103943 682.582764,801.197815 686.603943,793.226135 
	C687.803345,790.848450 689.102722,789.117493 692.108093,788.944702 
	C697.997986,788.606201 699.109192,789.499329 699.135620,795.490479 
	C699.194458,808.814697 699.161499,822.139893 699.337341,835.462402 
	C699.386963,839.223755 698.653870,841.357971 694.183899,841.368347 
	C689.691284,841.378784 688.863953,839.061035 688.886475,835.422546 
	C688.934937,827.618225 688.901306,819.813416 687.852844,811.716553 
	C685.180359,817.131104 682.568726,822.576904 679.808838,827.946533 
	C678.494141,830.504517 677.736206,833.498901 673.654480,833.476013 
	C669.577148,833.453125 668.854858,830.392517 667.522522,827.878601 
	C664.981567,823.084412 662.661316,818.173157 660.009644,812.827087 
	C657.868530,815.549072 658.388367,818.097839 658.332031,820.473755 
	C658.201721,825.967896 658.197632,831.465027 658.140869,836.960938 
	C658.107849,840.154602 656.367920,841.373840 653.327698,841.232483 
	C650.818787,841.115906 647.800720,841.478943 647.910400,837.783630 
	C648.382996,821.850891 647.354858,805.881714 649.355591,789.736816 
z"/>
<path fill="#000000" opacity="1.000000" stroke="none" 
	d="
M818.784424,752.593628 
	C818.754028,721.851562 818.737915,691.569702 818.813416,661.288086 
	C818.818787,659.128357 817.670227,655.896118 820.526123,655.135254 
	C824.310242,654.127197 828.445862,653.947083 832.263245,655.389709 
	C833.595459,655.893127 833.288147,657.719788 833.289001,659.024292 
	C833.308594,689.805298 833.284485,720.586304 833.350159,751.367188 
	C833.357117,754.614624 831.868958,756.189941 828.866699,755.804199 
	C825.428406,755.362427 821.003540,758.129944 818.784424,752.593628 
z"/>
<path fill="#000000" opacity="1.000000" stroke="none" 
	d="
M541.013000,839.332520 
	C532.244507,842.631348 523.519348,840.791870 514.941650,841.114380 
	C512.661133,841.200195 511.813385,839.510437 511.810852,837.429321 
	C511.793030,822.634583 511.807739,807.839783 511.775146,793.045105 
	C511.769135,790.315430 513.163940,789.039673 515.739502,789.038757 
	C521.881409,789.036682 528.046143,788.484619 534.158569,789.407532 
	C546.568848,791.281311 554.656799,799.055542 556.185364,810.445740 
	C557.940674,823.524597 552.610596,833.884033 541.013000,839.332520 
M545.712524,817.994202 
	C546.365417,804.415039 539.892029,798.155334 526.477539,799.160767 
	C523.571289,799.378601 522.235046,800.482910 522.251282,803.399048 
	C522.295776,811.380005 522.285339,819.361267 522.267029,827.342407 
	C522.262085,829.488892 523.090332,830.619568 525.368530,831.021301 
	C535.623047,832.829529 542.663513,828.645935 545.712524,817.994202 
z"/>
<path fill="#000000" opacity="1.000000" stroke="none" 
	d="
M293.832581,826.917969 
	C298.248810,815.196350 302.618134,803.868591 306.765930,792.460266 
	C308.159546,788.627136 311.112854,789.005493 314.103180,788.926697 
	C316.924683,788.852417 319.287079,789.169495 320.440430,792.419495 
	C325.779114,807.462891 331.258972,822.456177 336.659821,837.477661 
	C336.926544,838.219543 336.926331,839.057373 337.039703,839.782166 
	C330.284576,843.038635 326.929047,841.858398 324.953949,835.099243 
	C323.814545,831.199951 321.736938,829.539917 317.792358,829.889709 
	C316.305267,830.021606 314.779388,830.096252 313.304474,829.919312 
	C306.839508,829.143921 302.024780,830.470764 300.630798,838.003113 
	C300.080139,840.978638 292.826569,842.596191 290.427277,840.711548 
	C289.101929,839.670532 289.484467,838.325623 289.951019,837.065979 
	C291.164062,833.790649 292.445129,830.540527 293.832581,826.917969 
M308.181824,817.875793 
	C311.161285,822.286377 315.141846,818.840881 319.219025,819.900269 
	C318.002045,813.969727 316.004242,809.205261 313.710052,803.730286 
	C310.925140,808.426270 309.923737,812.936340 308.181824,817.875793 
z"/>
<path fill="#000000" opacity="1.000000" stroke="none" 
	d="
M445.949158,806.025146 
	C447.636261,801.451294 449.363068,797.298950 450.691742,793.022888 
	C452.025116,788.731750 455.311188,789.032654 458.697113,788.889954 
	C462.010193,788.750366 463.930328,790.030884 465.044342,793.183167 
	C470.024963,807.276917 475.172180,821.311890 480.138184,835.410645 
	C480.764008,837.187378 482.778656,840.001831 479.540833,840.814392 
	C476.607513,841.550598 471.703094,842.975342 470.854675,838.845459 
	C468.778046,828.737000 462.287140,829.332397 454.442535,829.687683 
	C448.964752,829.935913 446.827179,832.108643 445.400787,836.725586 
	C444.116730,840.881653 439.373932,842.689880 435.485535,840.936157 
	C432.885132,839.763245 434.127869,837.874329 434.707336,836.290771 
	C438.360901,826.306824 442.102081,816.354919 445.949158,806.025146 
M461.713837,813.658447 
	C460.426117,810.864990 460.142426,807.608704 457.579559,804.397217 
	C455.192200,809.535828 453.177582,814.015625 452.439178,819.225952 
	C456.275818,820.095703 459.485962,820.194092 462.785736,819.341919 
	C463.162842,817.442322 462.645447,815.888000 461.713837,813.658447 
z"/>
<path fill="#000000" opacity="1.000000" stroke="none" 
	d="
M585.932861,818.999817 
	C585.952515,810.337891 586.040527,802.175293 585.960205,794.014282 
	C585.924866,790.424744 587.438721,788.875793 591.041077,788.919861 
	C598.702148,789.013428 606.366028,788.997314 614.027222,788.901733 
	C617.681580,788.856201 618.485474,790.855591 618.436462,794.001099 
	C618.389832,796.990601 617.974548,799.311218 614.167725,799.209656 
	C610.006531,799.098755 605.829773,799.375977 601.678467,799.146851 
	C597.346924,798.907837 596.333008,801.034363 596.291748,804.906250 
	C596.250488,808.778015 597.983765,809.852356 601.458557,809.689209 
	C604.782532,809.533142 608.120667,809.711426 611.450684,809.645691 
	C614.685547,809.581787 615.292603,811.531494 615.252319,814.197083 
	C615.212585,816.827332 615.241760,819.369019 611.527588,819.329590 
	C608.030273,819.292480 604.521606,819.517456 601.036804,819.310120 
	C596.590942,819.045654 596.277222,821.716553 596.348999,825.065979 
	C596.415405,828.165527 596.032532,831.309326 600.708984,831.073303 
	C604.855957,830.864014 608.977295,831.823914 613.170105,831.221008 
	C616.536438,830.736877 619.072876,831.639526 618.997559,835.924622 
	C618.933411,839.578125 617.749390,841.434875 613.720459,841.324036 
	C606.230530,841.117859 598.727661,841.143066 591.236389,841.326538 
	C587.314331,841.422424 585.837524,839.764404 585.919067,835.989502 
	C586.037659,830.495361 585.938843,824.996582 585.932861,818.999817 
z"/>
<path fill="#000000" opacity="1.000000" stroke="none" 
	d="
M368.264130,835.823364 
	C354.047272,821.531799 356.424927,800.738647 373.021484,791.540894 
	C382.693085,786.180908 397.288025,788.136597 404.559692,795.805359 
	C406.025482,797.351257 408.184723,799.194031 405.444824,801.105530 
	C403.190613,802.678040 401.315765,806.707825 397.509766,803.463806 
	C393.142914,799.741882 388.387665,797.499939 382.427094,799.068726 
	C374.756378,801.087708 370.801147,805.549805 369.651794,813.775513 
	C368.799500,819.874817 372.194916,826.531433 377.780884,829.712341 
	C383.740723,833.106079 390.675964,832.414124 396.417053,827.852661 
	C399.716766,825.230957 404.078613,825.926941 406.434967,829.334534 
	C407.805603,831.316589 406.349030,832.386169 405.292206,833.607178 
	C398.466400,841.493347 385.058624,844.274353 375.015930,839.776489 
	C372.756317,838.764587 370.695892,837.307800 368.264130,835.823364 
z"/>
<path fill="#000000" opacity="1.000000" stroke="none" 
	d="
M751.262634,837.721924 
	C750.090149,843.020142 746.245789,841.024658 743.461853,841.003967 
	C740.737549,840.983826 740.525452,838.413452 740.868103,836.476135 
	C743.389587,822.218323 737.312195,810.627563 729.753784,799.407837 
	C727.916199,796.680176 726.512756,793.660095 724.925232,790.802551 
	C730.420715,787.428101 734.820984,788.421265 737.731812,793.258057 
	C740.352539,797.612671 742.250977,802.445557 746.031921,806.488708 
	C749.743835,802.775085 751.525757,798.241821 754.010559,794.202332 
	C757.539124,788.466125 760.065369,787.535400 766.733276,790.040955 
	C767.576843,791.665283 766.446716,792.878174 765.735718,794.122803 
	C764.167236,796.868286 762.732422,799.730835 760.843445,802.245483 
	C753.007202,812.676758 749.577148,824.245850 751.262634,837.721924 
z"/>
<path fill="#000000" opacity="1.000000" stroke="none" 
	d="
M157.002701,818.224609 
	C152.675995,818.224121 148.847549,818.279541 145.021729,818.202881 
	C142.769806,818.157776 139.571854,818.693176 139.457504,815.544983 
	C139.336517,812.213562 142.591217,812.804932 144.801392,812.770203 
	C150.457870,812.681091 156.116562,812.728516 161.774368,812.728149 
	C191.561111,812.725952 221.347839,812.725769 251.134583,812.725281 
	C252.299423,812.725281 253.472351,812.642517 254.627365,812.750183 
	C256.792725,812.951904 260.074921,812.084351 259.910217,815.544800 
	C259.758789,818.725830 256.589142,818.196411 254.350494,818.205017 
	C241.370987,818.255188 228.391190,818.233521 215.411499,818.232727 
	C196.108353,818.231567 176.805206,818.227600 157.002701,818.224609 
z"/>
<path fill="#000000" opacity="1.000000" stroke="none" 
	d="
M914.626465,815.869629 
	C913.329102,818.429321 911.223572,818.227051 909.246277,818.227478 
	C872.630615,818.235535 836.014893,818.231873 799.399231,818.209045 
	C797.254211,818.207703 794.394470,818.412781 794.332886,815.539551 
	C794.270142,812.614502 797.122803,812.767822 799.272766,812.766296 
	C836.054871,812.740356 872.836975,812.731445 909.619080,812.744690 
	C911.749817,812.745483 914.132507,812.499817 914.626465,815.869629 
z"/>
<path fill="#000000" opacity="1.000000" stroke="none" 
	d="
M862.229797,680.099487 
	C860.679138,682.871643 860.891479,686.367004 856.826599,686.908081 
	C848.243530,688.050598 846.707947,686.421570 848.910889,678.045166 
	C850.597656,671.631470 852.263184,665.208069 853.721313,658.740112 
	C854.382080,655.809143 855.790771,654.495178 858.842896,654.615417 
	C862.789062,654.770874 866.745911,654.653381 871.449524,654.653381 
	C869.493835,663.891663 865.262207,671.588867 862.229797,680.099487 
z"/>
<path fill="#000000" opacity="1.000000" stroke="none" 
	d="
M278.890320,881.032104 
	C278.891022,879.716187 278.884155,878.886230 278.899353,878.056702 
	C279.014679,871.752197 279.446320,871.358704 285.856995,871.692444 
	C290.843353,871.952026 292.749420,874.057861 291.941956,879.031616 
	C291.645508,880.857788 292.141693,882.133362 292.816071,883.686829 
	C294.409027,887.356445 292.708801,890.640564 288.865356,891.868164 
	C280.905823,894.410400 278.846497,892.273193 278.890320,881.032104 
M283.334839,886.388855 
	C284.029236,889.572510 285.964203,888.901794 287.757172,887.619995 
	C289.003754,886.728821 289.192017,885.170044 287.860138,884.226135 
	C285.914185,882.847107 284.095367,882.881165 283.334839,886.388855 
M284.202332,875.874023 
	C283.041992,877.475830 282.728180,878.947571 285.135284,879.545532 
	C286.355164,879.848450 287.645599,879.272522 287.851013,878.018555 
	C288.236511,875.665100 286.631165,875.331543 284.202332,875.874023 
z"/>
<path fill="#000000" opacity="1.000000" stroke="none" 
	d="
M768.018250,875.227661 
	C766.255310,876.200134 764.835144,875.259094 763.359375,875.243530 
	C760.761597,875.216125 758.662964,876.192078 757.670471,878.525757 
	C756.521973,881.226379 756.394592,884.184570 758.446960,886.546814 
	C760.026672,888.364868 762.563904,889.840454 764.568420,887.909058 
	C767.672913,884.917847 762.637146,884.744080 762.152222,882.427795 
	C763.996521,879.903015 766.584656,880.201965 768.812134,881.661865 
	C770.865356,883.007446 770.146667,889.676208 768.098572,891.244263 
	C764.841125,893.738098 758.266113,892.915161 755.216187,889.631775 
	C751.782898,885.935669 751.674744,878.787659 754.992493,874.847290 
	C757.823242,871.485352 764.073242,870.064636 767.258118,872.075928 
	C768.341919,872.760437 769.008667,873.629883 768.018250,875.227661 
z"/>
<path fill="#000000" opacity="1.000000" stroke="none" 
	d="
M510.605865,877.223877 
	C514.320618,876.687622 517.555542,878.269592 521.118896,877.100098 
	C523.458496,876.332153 525.500122,878.694397 525.876282,881.188721 
	C526.293030,883.951599 526.163452,886.806396 526.148560,889.620544 
	C526.142029,890.842834 525.648926,891.988708 524.135071,891.935120 
	C522.613892,891.881287 522.319702,890.614502 522.234558,889.460693 
	C522.137573,888.147461 522.238342,886.810913 522.351990,885.492920 
	C522.514771,883.604431 522.728149,881.371338 520.315430,881.141602 
	C517.436157,880.867493 517.634705,883.476807 517.460571,885.392761 
	C517.325745,886.875244 517.452820,888.379639 517.386230,889.870850 
	C517.339905,890.909668 517.051453,891.915710 515.746216,891.922791 
	C514.541077,891.929382 513.938477,891.057129 513.848572,890.011230 
	C513.678345,888.030518 513.705505,886.033691 513.598206,884.046387 
	C513.523193,882.655823 513.189270,881.167175 511.538269,881.119873 
	C509.928101,881.073792 509.374939,882.472168 509.274811,883.883850 
	C509.145813,885.702942 509.192963,887.534363 509.067261,889.353821 
	C508.984741,890.548035 508.647675,891.765503 507.179443,891.857178 
	C505.670654,891.951477 505.141907,890.738220 505.104156,889.563721 
	C504.997772,886.251404 504.859161,882.916260 505.128418,879.622314 
	C505.411438,876.159729 508.451904,877.931396 510.605865,877.223877 
z"/>
<path fill="#000000" opacity="1.000000" stroke="none" 
	d="
M639.102905,884.030640 
	C639.463135,885.024048 639.766724,885.629456 639.906799,886.270508 
	C640.303284,888.083618 642.430542,890.340149 640.211670,891.639404 
	C637.729248,893.093079 637.228027,890.040039 636.056335,888.611206 
	C633.977051,886.075195 630.738281,886.430298 628.717590,889.433350 
	C627.894470,890.656799 627.395142,892.542053 625.540833,891.808533 
	C623.187744,890.877686 624.614075,888.983032 625.084778,887.560059 
	C626.437195,883.471558 627.908630,879.421448 629.391846,875.377747 
	C630.012268,873.686584 630.515625,871.756104 632.910583,871.810974 
	C635.092834,871.860901 635.421753,873.748901 635.996521,875.223633 
	C637.078613,878.000183 637.989563,880.843384 639.102905,884.030640 
z"/>
<path fill="#000000" opacity="1.000000" stroke="none" 
	d="
M433.530151,892.294800 
	C429.875702,892.604919 426.703796,892.151489 426.302887,888.299744 
	C425.836517,883.819458 429.110962,882.377686 432.873444,882.045166 
	C433.054291,881.172852 432.528198,881.036133 432.074707,880.866211 
	C430.623260,880.322388 427.787079,882.565918 427.809967,879.404968 
	C427.828125,876.896790 430.693176,877.008850 432.532990,876.870056 
	C435.483276,876.647339 437.646088,878.085510 438.583435,881.012512 
	C439.518951,883.933655 439.276001,886.951050 438.989410,889.913147 
	C438.661560,893.302063 435.907684,892.071472 433.530151,892.294800 
z"/>
<path fill="#000000" opacity="1.000000" stroke="none" 
	d="
M208.094604,887.079590 
	C207.867462,889.203857 208.534103,891.736511 205.969421,891.796082 
	C203.315292,891.857788 203.853882,889.307007 203.813446,887.613403 
	C203.714569,883.472290 203.727783,879.326843 203.787735,875.184387 
	C203.810715,873.596375 203.450531,871.390625 205.641129,871.141968 
	C208.430145,870.825256 207.861496,873.359863 208.193634,875.024109 
	C208.288635,875.500061 208.435272,875.965820 208.551163,876.409119 
	C216.121094,877.640076 219.201691,882.714661 217.036469,890.211243 
	C216.739609,891.239075 216.368011,892.125000 215.197784,892.227478 
	C213.769226,892.352661 213.019333,891.492432 212.916855,890.179810 
	C212.775253,888.366028 212.796814,886.539795 212.734055,884.719360 
	C212.676147,883.039368 212.700684,880.959351 210.509552,880.936768 
	C208.348145,880.914368 208.318329,883.020874 208.150467,884.668274 
	C208.083496,885.325684 208.111328,885.992737 208.094604,887.079590 
z"/>
<path fill="#000000" opacity="1.000000" stroke="none" 
	d="
M661.884521,886.762329 
	C661.909851,882.625793 661.864502,878.958740 661.997009,875.298035 
	C662.059021,873.584534 661.613892,871.096680 664.269409,871.112244 
	C666.617737,871.126038 666.051758,873.455139 666.298462,875.005371 
	C666.375854,875.491821 666.478821,875.974060 666.566956,876.441406 
	C674.754883,877.915283 676.432495,880.374268 675.211792,888.993530 
	C675.022339,890.331299 674.985046,891.852051 673.203369,891.915833 
	C671.424316,891.979675 671.120789,890.498169 671.018066,889.143921 
	C670.879761,887.319763 670.950745,885.480347 670.833130,883.653809 
	C670.740723,882.219971 670.209778,880.911682 668.497253,881.016663 
	C667.142883,881.099670 666.568420,882.256775 666.402039,883.469849 
	C666.244446,884.618896 666.359253,885.804077 666.219421,886.957031 
	C665.997803,888.784485 667.046570,891.666016 664.232178,891.818787 
	C661.308960,891.977356 662.167480,889.061584 661.884521,886.762329 
z"/>
<path fill="#000000" opacity="1.000000" stroke="none" 
	d="
M352.137451,877.579956 
	C355.050232,879.547424 356.617645,882.099915 355.150024,884.956787 
	C353.794891,887.594543 350.034180,885.162292 347.936890,887.164185 
	C348.729767,889.323914 350.341003,888.490601 351.707947,888.320984 
	C353.168671,888.139587 354.566681,888.239380 354.646545,890.036987 
	C354.720825,891.709595 353.269012,892.228088 351.923798,892.378845 
	C348.674652,892.742920 345.516846,892.515259 343.425446,889.511169 
	C341.422302,886.633728 341.357422,883.561768 343.209167,880.607300 
	C345.208679,877.416931 348.102173,876.270264 352.137451,877.579956 
z"/>
<path fill="#000000" opacity="1.000000" stroke="none" 
	d="
M534.253174,877.598145 
	C537.931152,876.171753 541.132263,876.532593 542.875183,879.755432 
	C544.835266,883.379700 545.286560,888.034851 543.055420,891.177917 
	C541.606750,893.218628 537.239258,892.581848 534.205688,891.880615 
	C532.246277,891.427795 531.319458,889.698364 531.343018,887.672668 
	C531.378052,884.660339 533.365479,883.368164 535.938782,882.539368 
	C536.766235,882.272827 538.003113,882.557983 538.327881,881.251770 
	C532.835999,880.387268 532.835999,880.387268 534.253174,877.598145 
z"/>
<path fill="#000000" opacity="1.000000" stroke="none" 
	d="
M807.436096,880.803223 
	C805.719482,877.747498 808.187561,877.606995 809.778381,877.135498 
	C812.399292,876.358704 814.994812,876.933960 816.443604,879.254395 
	C818.570312,882.660645 818.852539,886.804199 817.584106,890.355164 
	C816.322815,893.886169 812.314026,891.650757 809.609497,892.304688 
	C807.570740,892.797791 805.974121,890.952332 805.435120,888.783447 
	C804.752686,886.037415 806.244202,884.304688 808.436829,883.112366 
	C809.670349,882.441528 811.083252,882.100525 812.549988,881.561462 
	C810.916565,879.590576 809.219299,881.528625 807.436096,880.803223 
z"/>
<path fill="#000000" opacity="1.000000" stroke="none" 
	d="
M415.126099,876.930054 
	C417.659119,876.908875 419.392181,877.789062 420.638733,879.492615 
	C421.743347,881.002197 422.543488,882.748779 421.906067,884.604614 
	C421.199982,886.660400 419.262970,886.115051 417.645325,886.203796 
	C416.406769,886.271667 414.958252,885.742554 414.019104,887.208130 
	C414.893677,889.490479 416.680511,888.585693 418.190216,888.388428 
	C419.427277,888.226746 420.662323,888.114624 420.947174,889.635132 
	C421.275848,891.389465 419.884277,891.829529 418.559052,892.188171 
	C414.036407,893.411987 409.850464,891.259216 408.606628,887.074585 
	C407.237793,882.469604 409.340332,879.000183 415.126099,876.930054 
z"/>
<path fill="#000000" opacity="1.000000" stroke="none" 
	d="
M303.578735,892.408447 
	C297.744507,889.468811 296.194275,884.220093 299.497345,879.764160 
	C302.271973,876.021118 307.457123,875.852356 310.103699,879.447266 
	C311.226135,880.971924 311.887146,882.720215 311.258087,884.573975 
	C310.551453,886.656311 308.578796,886.030457 307.010101,886.231689 
	C305.766571,886.391174 304.362915,885.792725 303.255371,886.989441 
	C303.748749,889.070251 305.401581,888.604553 306.792816,888.599487 
	C308.186005,888.594360 310.124298,887.738708 310.167938,890.120544 
	C310.203156,892.043884 308.347809,892.233276 306.900391,892.462769 
	C305.939148,892.615234 304.933136,892.485352 303.578735,892.408447 
z"/>
<path fill="#000000" opacity="1.000000" stroke="none" 
	d="
M579.054565,891.323181 
	C575.341309,887.918762 574.783386,884.228760 577.078674,880.275269 
	C579.234619,876.561829 584.440063,875.875122 587.408020,878.768494 
	C589.081177,880.399597 589.805176,882.500183 589.237427,884.703613 
	C588.564636,887.314941 586.283630,886.083191 584.603455,886.191711 
	C583.472778,886.264832 582.271301,885.916931 580.997070,887.027588 
	C582.229370,889.310669 584.190369,888.597473 586.034851,888.309143 
	C587.149109,888.134827 588.051208,888.466370 588.274170,889.685852 
	C588.495911,890.898193 587.672424,891.623352 586.698181,891.900818 
	C584.254517,892.596802 581.786316,892.716187 579.054565,891.323181 
z"/>
<path fill="#000000" opacity="1.000000" stroke="none" 
	d="
M261.467926,881.345947 
	C259.441162,883.059631 259.517792,884.490479 261.053497,886.216553 
	C262.340912,887.663574 263.884094,889.055603 264.147461,891.530334 
	C260.336945,893.677185 259.387939,889.274719 257.048004,888.279053 
	C255.567825,889.266052 256.346008,892.508057 253.722107,891.919861 
	C250.981064,891.305481 251.865799,888.756592 251.827942,886.910217 
	C251.739304,882.587708 251.787140,878.260742 251.871979,873.937439 
	C251.898361,872.592957 252.191315,871.083130 253.968307,871.108826 
	C255.750046,871.134521 255.880997,872.671875 256.000336,874.004333 
	C256.161682,875.805176 256.237793,877.613708 256.355316,879.496582 
	C258.918945,879.614624 260.057678,876.086731 262.882507,877.473938 
	C264.216949,879.150208 262.509308,880.003052 261.467926,881.345947 
z"/>
<path fill="#000000" opacity="1.000000" stroke="none" 
	d="
M692.831055,878.752258 
	C696.929871,876.080261 700.416931,876.086060 703.027100,880.158752 
	C705.176575,883.512756 703.936157,885.791077 700.006775,886.152771 
	C698.599487,886.282227 697.036926,885.874695 695.829895,887.143677 
	C697.459778,890.406616 700.653320,887.339905 702.690002,889.214783 
	C703.066467,891.690735 701.236816,892.063599 699.412292,892.287292 
	C696.252869,892.674561 693.333435,892.121887 691.549927,889.177246 
	C689.389038,885.609436 690.081726,882.191162 692.831055,878.752258 
z"/>
<path fill="#000000" opacity="1.000000" stroke="none" 
	d="
M488.553436,881.494995 
	C485.880035,878.877808 485.583832,876.240356 487.793945,873.712708 
	C490.124298,871.047485 493.237701,870.758667 496.487000,871.737000 
	C497.641937,872.084717 498.722321,872.795166 498.496033,874.198975 
	C498.258118,875.674988 497.113770,875.807312 495.811035,875.608643 
	C494.068451,875.342896 491.722626,874.456238 491.173889,876.902405 
	C490.639374,879.285278 493.239899,879.483826 494.794922,880.240601 
	C499.454498,882.508423 501.016754,885.741394 499.084351,889.212463 
	C497.408691,892.222412 491.637115,893.561035 488.350952,891.714539 
	C487.259705,891.101318 486.354767,890.338074 486.867462,888.960327 
	C487.309448,887.772644 488.373505,887.873901 489.392975,888.093811 
	C490.201630,888.268250 491.003113,888.545776 491.819458,888.599182 
	C493.204865,888.689819 494.630035,888.424561 495.181122,887.002625 
	C495.840302,885.301758 494.404358,884.724915 493.210358,884.100830 
	C491.740448,883.332520 490.287933,882.530945 488.553436,881.494995 
z"/>
<path fill="#000000" opacity="1.000000" stroke="none" 
	d="
M732.768738,877.004150 
	C734.758057,877.566040 736.208496,878.305969 737.207336,879.746216 
	C738.182922,881.152954 738.926086,882.657593 738.372131,884.387817 
	C737.698975,886.490479 735.839294,886.074707 734.213501,886.186523 
	C732.820801,886.282410 731.224670,885.653564 730.059082,887.152039 
	C731.092773,889.571228 733.064087,888.613220 734.726746,888.487061 
	C735.985840,888.391663 737.199036,888.354919 737.313599,889.945923 
	C737.418579,891.402954 736.188110,891.798340 735.049927,892.142029 
	C730.752136,893.440186 726.245422,891.143311 725.072083,887.057190 
	C723.665894,882.159912 726.346558,878.457642 732.768738,877.004150 
z"/>
<path fill="#000000" opacity="1.000000" stroke="none" 
	d="
M799.148682,878.879272 
	C805.190857,888.029602 796.027771,885.228333 792.877930,886.872864 
	C793.882324,889.150024 795.440186,888.752625 796.882080,888.511719 
	C798.248230,888.283386 799.765503,887.967163 799.964722,889.836914 
	C800.137939,891.462463 798.714294,892.065430 797.349487,892.239502 
	C793.920959,892.676575 790.575745,892.479980 788.685486,889.014526 
	C786.857117,885.662598 787.078674,882.156494 789.586365,879.294861 
	C792.274048,876.227905 795.583069,876.199951 799.148682,878.879272 
z"/>
<path fill="#000000" opacity="1.000000" stroke="none" 
	d="
M845.994263,877.859863 
	C848.294128,879.806702 849.854858,881.961731 848.845215,884.585022 
	C847.812805,887.267700 845.042053,885.713867 843.074890,886.175903 
	C842.469788,886.318054 841.871155,886.487488 840.987244,886.718140 
	C841.914734,889.053772 843.586426,888.689453 845.165405,888.476318 
	C846.382385,888.312073 847.677673,888.208862 847.922058,889.750183 
	C848.196167,891.478882 846.842346,892.059937 845.464722,892.239685 
	C842.199585,892.665588 839.032532,892.454956 837.054504,889.319153 
	C835.225708,886.419983 835.017395,883.293884 836.985840,880.396912 
	C839.085449,877.306946 841.989380,876.141724 845.994263,877.859863 
z"/>
<path fill="#000000" opacity="1.000000" stroke="none" 
	d="
M242.504181,891.207642 
	C242.043655,888.411255 241.888214,885.936035 241.650787,883.468811 
	C241.529297,882.206360 240.898911,881.132629 239.523300,881.124268 
	C238.163437,881.115967 237.448746,882.173584 237.322449,883.417908 
	C237.121506,885.397888 237.140457,887.399353 236.974380,889.383972 
	C236.873459,890.589844 236.457474,891.744446 235.022491,891.878601 
	C233.507904,892.020081 232.930847,890.911621 232.893402,889.681580 
	C232.792389,886.362427 232.559158,883.009766 232.904434,879.725647 
	C233.218506,876.738342 241.179199,875.839600 243.938980,878.365601 
	C246.094330,880.338318 247.076538,888.752625 245.388367,891.140625 
	C244.697632,892.117676 243.754257,892.117188 242.504181,891.207642 
z"/>
<path fill="#000000" opacity="1.000000" stroke="none" 
	d="
M458.574493,878.246277 
	C460.885376,877.610474 462.960327,877.170471 465.055511,877.027344 
	C468.140106,876.816650 470.027893,878.493347 470.942139,881.332886 
	C471.141205,881.951111 471.267883,882.669128 471.161652,883.296082 
	C470.669952,886.198059 472.849579,891.217590 469.344025,891.527039 
	C465.323700,891.881775 467.596008,886.931030 466.988831,884.353088 
	C466.606384,882.729187 466.742493,880.692261 464.485535,880.776428 
	C462.674744,880.843994 462.323181,882.604065 462.228485,884.144714 
	C462.126770,885.798706 462.201294,887.463440 462.102539,889.117737 
	C462.021301,890.478149 461.771698,891.962891 459.988525,891.892761 
	C458.254913,891.824585 457.982880,890.312317 457.974884,888.978516 
	C457.954163,885.508301 457.509918,882.015747 458.574493,878.246277 
z"/>
<path fill="#000000" opacity="1.000000" stroke="none" 
	d="
M718.354004,887.303833 
	C717.191406,889.420654 717.058594,892.250549 714.208557,892.015015 
	C711.780151,891.814331 711.428406,889.295288 710.870850,887.537292 
	C709.861816,884.355896 707.689819,881.430603 708.132446,877.567200 
	C713.351990,877.077271 712.071899,882.183105 714.673340,884.261536 
	C715.603333,882.351440 716.500610,880.364502 717.530151,878.448669 
	C718.135925,877.321411 719.163696,876.740173 720.437378,877.386841 
	C721.548096,877.950562 721.461853,879.048279 721.131897,879.991150 
	C720.313232,882.330811 719.377380,884.629517 718.354004,887.303833 
z"/>
<path fill="#000000" opacity="1.000000" stroke="none" 
	d="
M324.383362,878.429199 
	C324.687103,879.930908 323.768158,880.399109 323.060120,881.100464 
	C319.233002,884.891052 321.981903,887.808411 324.856110,890.739685 
	C322.225403,893.428833 319.564056,893.137573 318.188416,890.481812 
	C316.161621,886.568909 316.597900,881.930603 316.136322,877.607849 
	C316.014099,876.463440 316.941071,874.263367 318.803741,873.749451 
	C320.867310,873.180176 321.004517,875.241699 321.922516,876.272095 
	C322.570831,876.999756 323.457520,877.514954 324.383362,878.429199 
z"/>
<path fill="#000000" opacity="1.000000" stroke="none" 
	d="
M828.534912,887.110352 
	C829.254944,888.816101 831.393372,888.879211 831.432373,891.135742 
	C829.212036,893.444702 826.284119,893.104370 825.224548,890.474731 
	C823.675476,886.630371 823.116821,882.280273 822.830078,878.098083 
	C822.742371,876.818542 823.793030,874.450134 825.754700,873.814453 
	C828.131531,873.044434 828.024292,875.702881 829.205994,876.616394 
	C829.973328,877.209473 830.752930,877.786682 831.854858,878.618652 
	C829.351624,880.937500 827.334167,883.294067 828.534912,887.110352 
z"/>
<path fill="#000000" opacity="1.000000" stroke="none" 
	d="
M568.587463,887.089722 
	C569.333557,888.971252 573.127686,889.406738 570.646790,891.908203 
	C569.228760,893.337952 567.204041,892.543091 565.740295,891.178467 
	C564.298462,889.834412 562.502319,878.581543 563.376221,876.778442 
	C564.899841,873.634705 566.433777,871.523376 568.864136,876.205383 
	C569.341919,877.125916 570.575806,877.653870 571.745972,878.591187 
	C569.568115,880.986755 567.316345,883.276123 568.587463,887.089722 
z"/>
<path fill="#000000" opacity="1.000000" stroke="none" 
	d="
M650.370300,887.433777 
	C651.374329,887.976013 652.115173,888.425049 652.895020,888.508118 
	C654.422424,888.670837 656.834473,887.654602 656.827820,890.112427 
	C656.820129,892.947327 654.158691,892.487305 652.239502,892.419556 
	C647.730896,892.260315 644.782837,889.150452 644.841980,884.760437 
	C644.899292,880.500610 648.669800,876.688904 652.825745,876.803955 
	C654.503113,876.850403 656.586243,877.126099 656.695923,879.113037 
	C656.825317,881.456787 654.828918,880.523010 653.403931,880.604492 
	C648.661011,880.875427 648.573669,883.660217 650.370300,887.433777 
z"/>
<path fill="#000000" opacity="1.000000" stroke="none" 
	d="
M198.243622,874.880615 
	C194.232361,875.057861 193.039963,876.964661 193.325302,880.485657 
	C193.566437,883.461365 193.359772,886.477112 193.280548,889.473267 
	C193.249161,890.659912 193.054733,891.935486 191.424423,891.864563 
	C189.876694,891.797241 189.620499,890.560547 189.600311,889.363708 
	C189.558197,886.866943 189.570206,884.366760 189.652176,881.871033 
	C189.766022,878.403992 189.901917,875.011780 185.025131,874.753357 
	C184.645020,874.733154 184.312119,873.822021 183.477524,872.652893 
	C188.790482,871.070557 193.633514,871.443176 198.427231,872.220276 
	C199.495071,872.393372 199.326996,873.802429 198.243622,874.880615 
z"/>
<path fill="#000000" opacity="1.000000" stroke="none" 
	d="
M329.328064,877.655457 
	C332.439087,872.694397 332.439087,872.694397 337.927246,878.821350 
	C334.638702,882.605652 333.085083,886.617798 338.027161,890.385925 
	C334.578613,893.367798 331.480804,892.575195 331.115417,888.415588 
	C330.799377,884.818054 329.913727,881.429199 329.328064,877.655457 
z"/>
<path fill="#000000" opacity="1.000000" stroke="none" 
	d="
M395.605927,872.706177 
	C396.023407,876.351074 396.351654,879.650269 396.233093,882.933289 
	C396.099731,886.625854 396.753601,889.173767 401.299469,888.664246 
	C402.728943,888.504028 404.379181,888.574463 404.873291,891.208252 
	C401.492493,893.144165 397.643463,892.756042 394.230713,891.767883 
	C391.461578,890.966003 392.849487,887.752319 392.722321,885.604126 
	C392.517517,882.144226 392.577148,878.661865 392.680054,875.193604 
	C392.726196,873.637817 392.560028,871.540344 395.605927,872.706177 
z"/>
<path fill="#000000" opacity="1.000000" stroke="none" 
	d="
M449.829132,882.341003 
	C449.411224,884.774780 449.253357,886.902222 449.016083,889.020630 
	C448.868164,890.341248 448.676056,891.837524 446.929291,891.861145 
	C445.170410,891.884888 444.875977,890.430664 444.840027,889.078369 
	C444.761108,886.112854 444.771790,883.144226 444.789612,880.177124 
	C444.801514,878.194946 445.738831,876.809143 447.814423,877.377136 
	C449.605347,877.867371 452.061676,875.538269 453.112457,878.241333 
	C454.067200,880.697205 451.151459,880.798340 449.829132,882.341003 
z"/>
<path fill="#000000" opacity="1.000000" stroke="none" 
	d="
M367.134491,881.217529 
	C364.299896,883.444214 365.527008,886.330200 365.093811,888.827454 
	C364.836609,890.310303 364.732635,892.041992 362.675140,891.856506 
	C360.999725,891.705505 360.859711,890.161987 360.820038,888.823975 
	C360.756531,886.682617 360.747986,884.538330 360.772675,882.395874 
	C360.826355,877.738220 363.254883,875.660217 367.523956,877.108948 
	C370.343201,878.065735 369.069824,879.716187 367.134491,881.217529 
z"/>
<path fill="#000000" opacity="1.000000" stroke="none" 
	d="
M549.798218,889.557190 
	C549.736816,887.137451 549.712524,885.161865 549.719727,883.186401 
	C549.743591,876.672852 550.773499,876.030151 558.747131,878.506470 
	C554.119019,881.397461 554.211182,885.736450 553.580078,890.057556 
	C553.157166,892.952942 551.095215,892.760010 549.798218,889.557190 
z"/>
<path fill="#000000" opacity="1.000000" stroke="none" 
	d="
M858.057251,890.462708 
	C855.938354,892.869629 854.701599,892.164062 854.579956,889.629028 
	C854.422180,886.343262 854.616455,883.039307 854.694824,879.744080 
	C854.740356,877.832764 855.867371,877.081482 857.638489,877.377441 
	C859.165039,877.632507 861.076965,876.054749 862.184875,877.989502 
	C863.249023,879.848083 861.500488,880.478943 860.307434,881.343018 
	C857.161316,883.621826 858.798462,887.132080 858.057251,890.462708 
z"/>
<path fill="#000000" opacity="1.000000" stroke="none" 
	d="
M783.827881,878.934326 
	C778.003235,881.608826 780.497131,888.082947 777.973145,892.348755 
	C775.816406,889.813599 774.392761,878.991272 776.109558,878.134521 
	C778.448303,876.967224 781.460754,875.654114 783.827881,878.934326 
z"/>
<path fill="#000000" opacity="1.000000" stroke="none" 
	d="
M597.848267,878.028503 
	C600.316162,882.506042 597.816589,886.715576 597.756592,890.973389 
	C597.738037,892.291321 595.818970,892.501160 594.720154,891.107727 
	C593.515930,889.580750 594.200134,879.155212 595.687073,877.833740 
	C596.031311,877.527771 596.913635,877.827332 597.848267,878.028503 
z"/>
<path fill="#000000" opacity="1.000000" stroke="none" 
	d="
M227.156830,886.740601 
	C227.059113,888.325256 227.084412,889.495605 226.828430,890.600769 
	C226.588303,891.637451 225.773514,892.263306 224.640594,892.183411 
	C223.459549,892.100098 222.875717,891.288696 222.864136,890.213623 
	C222.826981,886.766663 222.837097,883.317749 222.919800,879.871765 
	C222.949478,878.635925 223.509384,877.586060 224.961746,877.582153 
	C226.443130,877.578186 226.897263,878.681152 226.968948,879.896423 
	C227.094574,882.026489 227.100815,884.163574 227.156830,886.740601 
z"/>
<path fill="#000000" opacity="1.000000" stroke="none" 
	d="
M681.488464,878.960632 
	C683.229126,876.696594 684.756592,877.069336 684.999817,879.320740 
	C685.369690,882.744507 685.148743,886.236938 685.094788,889.698853 
	C685.078918,890.716675 684.647644,891.733337 683.470154,891.865540 
	C681.983521,892.032471 681.326965,890.900574 681.297363,889.718018 
	C681.211060,886.263245 681.321533,882.803528 681.488464,878.960632 
z"/>
</svg>